<?xml version="1.0" encoding="utf-8"?>
<!-- Generator: Adobe Illustrator 17.0.0, SVG Export Plug-In . SVG Version: 6.00 Build 0)  -->
<!DOCTYPE svg PUBLIC "-//W3C//DTD SVG 1.1//EN" "http://www.w3.org/Graphics/SVG/1.1/DTD/svg11.dtd">
<svg version="1.1" id="图层_1" xmlns="http://www.w3.org/2000/svg" xmlns:xlink="http://www.w3.org/1999/xlink" x="0px" y="0px"
	 width="40px" height="40px" viewBox="0 0 40 40" enable-background="new 0 0 40 40" xml:space="preserve">
<g>
	<g>
		<g>
			<path fill="#575757" d="M20,33.5c-7.444,0-13.5-6.056-13.5-13.5S12.556,6.5,20,6.5c7.444,0,13.5,6.056,13.5,13.5
				S27.444,33.5,20,33.5z M20,9.5C14.21,9.5,9.5,14.21,9.5,20S14.21,30.5,20,30.5c5.79,0,10.5-4.71,10.5-10.5S25.79,9.5,20,9.5z"/>
		</g>
	</g>
	<g>
		<g>
			<path fill="#575757" d="M18.029,22.713h-1.451l-0.577-1.5H13.36l-0.545,1.5H11.4l2.573-6.606h1.41L18.029,22.713z M15.573,20.1
				l-0.91-2.451L13.77,20.1H15.573z"/>
		</g>
		<g>
			<path fill="#575757" d="M18.673,22.713v-6.606h1.266v2.379c0.391-0.444,0.854-0.667,1.388-0.667c0.583,0,1.065,0.211,1.446,0.633
				c0.382,0.422,0.572,1.028,0.572,1.818c0,0.817-0.194,1.446-0.583,1.888c-0.389,0.441-0.861,0.662-1.417,0.662
				c-0.273,0-0.543-0.068-0.809-0.205c-0.266-0.137-0.495-0.339-0.687-0.606v0.703H18.673z M19.93,20.217
				c0,0.496,0.078,0.862,0.234,1.1c0.219,0.336,0.511,0.505,0.874,0.505c0.279,0,0.518-0.12,0.714-0.358s0.295-0.615,0.295-1.129
				c0-0.547-0.099-0.941-0.297-1.183c-0.198-0.242-0.452-0.363-0.761-0.363c-0.304,0-0.556,0.118-0.757,0.354
				S19.93,19.736,19.93,20.217z"/>
		</g>
		<g>
			<path fill="#575757" d="M28.537,19.343l-1.249,0.225c-0.042-0.25-0.137-0.437-0.286-0.563c-0.148-0.126-0.342-0.189-0.579-0.189
				c-0.315,0-0.567,0.109-0.755,0.327c-0.188,0.218-0.281,0.582-0.281,1.093c0,0.568,0.095,0.969,0.286,1.203
				c0.19,0.234,0.447,0.352,0.768,0.352c0.24,0,0.437-0.068,0.59-0.205s0.262-0.372,0.325-0.705l1.244,0.212
				c-0.129,0.571-0.377,1.002-0.744,1.293c-0.367,0.292-0.857,0.437-1.474,0.437c-0.7,0-1.258-0.221-1.674-0.662
				c-0.417-0.442-0.625-1.053-0.625-1.834c0-0.791,0.209-1.405,0.626-1.846c0.417-0.44,0.982-0.66,1.694-0.66
				c0.583,0,1.046,0.125,1.391,0.376C28.14,18.447,28.387,18.829,28.537,19.343z"/>
		</g>
	</g>
</g>
</svg>
