<?xml version="1.0" encoding="utf-8"?>
<!-- Generator: Adobe Illustrator 17.0.0, SVG Export Plug-In . SVG Version: 6.00 Build 0)  -->
<!DOCTYPE svg PUBLIC "-//W3C//DTD SVG 1.1//EN" "http://www.w3.org/Graphics/SVG/1.1/DTD/svg11.dtd">
<svg version="1.1" id="图层_1" xmlns="http://www.w3.org/2000/svg" xmlns:xlink="http://www.w3.org/1999/xlink" x="0px" y="0px"
	 width="40px" height="40px" viewBox="0 0 40 40" enable-background="new 0 0 40 40" xml:space="preserve">
<g>
	<g>
		<g>
			<path fill="#575757" d="M20,33.5c-7.444,0-13.5-6.057-13.5-13.501c0-7.444,6.056-13.5,13.5-13.5c7.444,0,13.5,6.056,13.5,13.5
				C33.5,27.444,27.444,33.5,20,33.5z M20,9.5c-5.79,0-10.5,4.71-10.5,10.5C9.5,25.789,14.21,30.5,20,30.5
				c5.79,0,10.5-4.711,10.5-10.501C30.5,14.21,25.79,9.5,20,9.5z"/>
		</g>
	</g>
	<g>
		<path fill-rule="evenodd" clip-rule="evenodd" fill="#575757" d="M14.343,19.609l1.886-1.886L20,21.495l-1.886,1.886
			L14.343,19.609z"/>
	</g>
	<g>
		<path fill-rule="evenodd" clip-rule="evenodd" fill="#575757" d="M17.171,22.438l6.6-6.6l1.886,1.886l-6.6,6.6L17.171,22.438z"/>
	</g>
</g>
</svg>
