<?xml version="1.0" encoding="utf-8"?>
<!-- Generator: Adobe Illustrator 17.0.0, SVG Export Plug-In . SVG Version: 6.00 Build 0)  -->
<!DOCTYPE svg PUBLIC "-//W3C//DTD SVG 1.1//EN" "http://www.w3.org/Graphics/SVG/1.1/DTD/svg11.dtd">
<svg version="1.1" id="图层_1" xmlns="http://www.w3.org/2000/svg" xmlns:xlink="http://www.w3.org/1999/xlink" x="0px" y="0px"
	 width="40px" height="40px" viewBox="0 0 40 40" enable-background="new 0 0 40 40" xml:space="preserve">
<g>
	<path fill="#69A439" d="M7,16.808L20.566,9.5l13.566,7.569l-13.566,7.307L7,16.808z"/>
	<path fill="#69A439" d="M12.25,21.75l8.619,4.282l8.006-4.282l0.11,5.414c0,0-2.042,3.337-8.116,3.337s-8.64-3.593-8.64-3.593
		L12.25,21.75z"/>
	<path fill="#69A439" d="M32.644,17.819h0.786v3.593h-0.786V17.819z"/>
	<path fill="#69A439" d="M32.906,20.642c0.868,0,1.571,0.689,1.571,1.54s-0.703,1.54-1.571,1.54s-1.571-0.689-1.571-1.54
		C31.335,21.33,32.038,20.642,32.906,20.642z"/>
	<path fill="#69A439" d="M32.907,22.186L35,27.833h-4.185L32.907,22.186z"/>
</g>
</svg>
