<?xml version="1.0" encoding="utf-8"?>
<!-- Generator: Adobe Illustrator 17.0.0, SVG Export Plug-In . SVG Version: 6.00 Build 0)  -->
<!DOCTYPE svg PUBLIC "-//W3C//DTD SVG 1.1//EN" "http://www.w3.org/Graphics/SVG/1.1/DTD/svg11.dtd">
<svg version="1.1" id="图层_1" xmlns="http://www.w3.org/2000/svg" xmlns:xlink="http://www.w3.org/1999/xlink" x="0px" y="0px"
	 width="40px" height="40px" viewBox="0 0 40 40" enable-background="new 0 0 40 40" xml:space="preserve">
<path fill="#C4B669" d="M20,7C12.82,7,7,12.82,7,20s5.82,13,13,13s13-5.82,13-13S27.18,7,20,7z M20.873,25.934v2.013h-1.966v-1.885
	c-1.074-0.067-2.229-0.374-2.937-0.789l-0.18-0.105l0.683-1.908l0.258,0.145c0.819,0.46,1.85,0.734,2.756,0.734
	c1.194,0,1.967-0.58,1.967-1.478c0-0.834-0.593-1.376-2.187-2c-1.702-0.688-3.274-1.579-3.274-3.427
	c0-1.652,1.159-2.903,3.042-3.302v-1.918h1.967v1.787c0.901,0.054,1.729,0.267,2.464,0.635l0.2,0.101l-0.686,1.852l-0.247-0.118
	c-0.521-0.249-1.337-0.579-2.385-0.579c-1.171,0-1.784,0.645-1.784,1.282c0,0.749,0.714,1.19,2.213,1.84
	c1.969,0.783,3.284,1.705,3.284,3.652C24.061,24.203,22.817,25.546,20.873,25.934z"/>
</svg>
