<?xml version="1.0" encoding="utf-8"?>
<!-- Generator: Adobe Illustrator 17.0.0, SVG Export Plug-In . SVG Version: 6.00 Build 0)  -->
<!DOCTYPE svg PUBLIC "-//W3C//DTD SVG 1.1//EN" "http://www.w3.org/Graphics/SVG/1.1/DTD/svg11.dtd">
<svg version="1.1" id="图层_1" xmlns="http://www.w3.org/2000/svg" xmlns:xlink="http://www.w3.org/1999/xlink" x="0px" y="0px"
	 width="40px" height="40px" viewBox="0 0 40 40" enable-background="new 0 0 40 40" xml:space="preserve">
<path fill="#B54D92" d="M33.268,19.25C31.634,11.199,28.191,10,26.252,10c-1.938,0-4.461,1-6.264,1c-1.8,0-4.319-1-6.253-1
	c-1.935,0-5.373,1.199-7.004,9.25C5.134,27.133,6.391,30,8.232,30s4.037-2.905,5.253-4.25S19.072,25,19.989,25
	c0.918,0,5.296-0.595,6.515,0.75c1.218,1.345,3.418,4.25,5.262,4.25C33.608,30,34.867,27.133,33.268,19.25z M13.359,19.75
	c-1.451,0-2.627-1.175-2.627-2.625s1.176-2.625,2.627-2.625s2.626,1.176,2.626,2.625C15.986,18.575,14.81,19.75,13.359,19.75z
	 M25.991,13.25c0.691,0,1.251,0.56,1.251,1.25s-0.56,1.25-1.251,1.25s-1.251-0.56-1.251-1.25S25.301,13.25,25.991,13.25z
	 M23.49,18.25c-0.691,0-1.251-0.56-1.251-1.25s0.56-1.25,1.251-1.25s1.251,0.56,1.251,1.25S24.181,18.25,23.49,18.25z M25.991,20.5
	c-0.691,0-1.251-0.56-1.251-1.25c0-0.691,0.56-1.25,1.251-1.25s1.251,0.56,1.251,1.25C27.242,19.941,26.682,20.5,25.991,20.5z
	 M28.493,18.25c-0.691,0-1.251-0.56-1.251-1.25s0.56-1.25,1.251-1.25s1.251,0.56,1.251,1.25C29.743,17.69,29.183,18.25,28.493,18.25
	z"/>
</svg>
