<?xml version="1.0" encoding="utf-8"?>
<!-- Generator: Adobe Illustrator 17.0.0, SVG Export Plug-In . SVG Version: 6.00 Build 0)  -->
<!DOCTYPE svg PUBLIC "-//W3C//DTD SVG 1.1//EN" "http://www.w3.org/Graphics/SVG/1.1/DTD/svg11.dtd">
<svg version="1.1" id="图层_1" xmlns="http://www.w3.org/2000/svg" xmlns:xlink="http://www.w3.org/1999/xlink" x="0px" y="0px"
	 width="290px" height="90px" viewBox="0 0 290 90" enable-background="new 0 0 290 90" xml:space="preserve">
<g>
	<g>
		<path fill="#A8A8A8" d="M105.465,84.297h-34.33c-0.69-1.546-5.586-12.676-5.586-17.587c0-3.074-1.36-9.031,6.822-16.043
			c2.602-2.231,6.079-4.218,9.748-5.928c-0.368,0.232-1.253,0.875-1.42,1.799c-0.212,1.169,0.821,2.335,0.821,2.335
			s1.375-0.73,1.587-1.899c0.203-1.127-0.738-2.239-0.809-2.32c1.806-0.836,3.654-1.601,5.466-2.298
			c-0.144,0.449-0.238,1.021-0.039,1.538c0.013,0.035,0.032,0.068,0.047,0.102c-0.574-0.666-1.529-0.942-1.529-0.942
			s-0.795,1.281-0.392,2.329c0.404,1.048,1.851,1.467,1.851,1.467s0.793-1.281,0.39-2.329c-0.014-0.036-0.032-0.069-0.047-0.104
			c0.575,0.667,1.531,0.943,1.531,0.943s0.027-0.049,0.064-0.116c0.033,0.258,0.121,0.5,0.246,0.718
			c-0.48,0.048-1.094,0.197-1.518,0.624c-0.79,0.798-0.61,2.258-0.61,2.258s0.91,0.102,1.684-0.246
			c-0.529,0.817-0.387,1.975-0.387,1.975s1.462,0.167,2.253-0.63c0.79-0.798,0.609-2.258,0.609-2.258s-0.91-0.102-1.683,0.247
			c0.226-0.35,0.33-0.76,0.374-1.117c0.208,0.181,0.369,0.287,0.369,0.287s1.127-1,1.042-2.119s-1.351-1.936-1.351-1.936
			s-0.311,0.281-0.595,0.705c0.007-0.24-0.017-0.485-0.107-0.719c-0.197-0.513-0.645-0.875-1.05-1.111
			c0.712-0.264,1.417-0.519,2.107-0.761c-0.101,0.479-0.201,1.372,0.241,2.019c0.407,0.595,1.171,0.838,1.667,0.936
			c-0.326,0.388-0.768,1.053-0.713,1.77c0.086,1.12,1.353,1.936,1.353,1.936s1.127-1,1.041-2.119
			c-0.063-0.831-0.776-1.493-1.14-1.78c0.104-0.454,0.243-1.412-0.226-2.098c-0.369-0.541-1.034-0.79-1.524-0.906
			c0.681-0.233,1.346-0.456,1.991-0.665c-0.066,0.419-0.16,1.468,0.403,2.148c0.715,0.866,2.221,0.803,2.221,0.803
			s0.126-0.543,0.065-1.163c0.487,0.441,1.049,0.668,1.049,0.668s0.066-0.089,0.155-0.232c0.518,0.629,1.321,0.953,1.321,0.953
			s0.917-1.195,0.622-2.278c-0.296-1.082-1.694-1.645-1.694-1.645s-0.067,0.089-0.156,0.233c-0.178-0.217-0.389-0.397-0.591-0.541
			c0.928-0.275,1.768-0.513,2.499-0.714c0.018,0.503,0.136,1.2,0.593,1.664c0.015,0.015,0.03,0.027,0.045,0.041
			c-0.314,0.399-0.698,1.033-0.638,1.709c0.1,1.118,1.375,1.92,1.375,1.92s0.328-0.305,0.613-0.757
			c-0.001,0.057-0.011,0.112-0.006,0.17c0.099,1.118,1.376,1.92,1.376,1.92s1.114-1.013,1.017-2.132
			c-0.099-1.118-1.375-1.92-1.375-1.92s-0.329,0.305-0.614,0.758c0.001-0.057,0.012-0.113,0.007-0.171
			c-0.031-0.349-0.181-0.662-0.367-0.935c0.474,0.053,0.849,0.004,0.849,0.004s0.07-0.485-0.015-1.05
			c0.802,0.725,2.214,0.546,2.214,0.546s0.072-0.507-0.022-1.088c0.794,0.77,2.256,0.583,2.256,0.583s0.216-1.491-0.57-2.292
			c-0.787-0.799-2.282-0.608-2.282-0.608s-0.073,0.508,0.022,1.089c-0.794-0.771-2.255-0.584-2.255-0.584s-0.024,0.172-0.027,0.427
			c-0.286,0.031-0.645,0.071-1.064,0.121c-0.587-0.109-1.106-0.044-1.106-0.044s-0.01,0.07-0.018,0.184
			c-2.408,0.312-6.08,0.868-10.356,1.779l6.936-10.817l-0.874,1.127c-0.111-0.431-0.522-1.733-1.525-2.223
			c-1.211-0.59-2.825,0.224-2.825,0.224s0.192,0.966,0.78,1.711c-0.396-0.114-0.785-0.135-1.038-0.134
			c-0.002-0.502-0.095-1.227-0.553-1.714c-0.527-0.557-1.394-0.656-1.884-0.663c0.67-0.773,1.279-1.447,1.791-2.001
			c0.085,0.44,0.364,1.49,1.148,1.958c1.006,0.599,2.463,0.01,2.463,0.01s-0.082-0.738-0.461-1.395
			c0.136,0.076,0.272,0.14,0.399,0.192c-0.046,0.016-0.075,0.028-0.075,0.028s0.167,1.485,1.123,2.056
			c0.957,0.57,2.342,0.009,2.342,0.009s-0.166-1.486-1.122-2.056c-0.44-0.261-0.966-0.28-1.41-0.229
			c0.114-0.332,0.236-0.823,0.202-1.322c0.178,0.396,0.45,0.805,0.864,1.052c1.005,0.599,2.463,0.009,2.463,0.009
			s-0.153-1.361-0.992-2.03c-0.147-0.508-0.45-1.213-1.053-1.574c-1.007-0.597-2.464-0.008-2.464-0.008s0.058,0.504,0.291,1.049
			c-0.624-0.428-1.353-0.569-1.353-0.569s-0.701,1.406-0.184,2.456c0.012,0.022,0.025,0.042,0.038,0.064
			c-0.682-0.285-1.492-0.13-1.93-0.007c0.851-0.909,1.376-1.423,1.376-1.423c-1.148,0.781-2.265,1.654-3.349,2.583
			c0.17-0.435,0.308-1.023,0.12-1.562c-0.126-0.357-0.379-0.638-0.652-0.858c0.237-0.243,0.415-0.508,0.534-0.721
			c0.032,0.052,0.057,0.107,0.096,0.155c0.671,0.831,2.105,0.787,2.105,0.787s0.166-0.696,0.03-1.398
			c0.648,0.266,1.339,0.246,1.339,0.246s0.345-1.393-0.326-2.225c-0.672-0.83-2.106-0.787-2.106-0.787s-0.165,0.697-0.029,1.398
			c-0.648-0.266-1.34-0.245-1.34-0.245s-0.172,0.719-0.023,1.433c-0.427-0.226-1.103-0.485-1.736-0.308
			c-0.562,0.158-0.967,0.625-1.225,1.019l-0.21-2.327l-0.084,2.854c-0.021,0.047-0.034,0.078-0.034,0.078s0.018,0.013,0.03,0.022
			l-0.044,1.507c-0.26-0.32-0.7-0.747-1.254-0.82c-0.906-0.119-1.77,0.752-1.77,0.752s0.607,1.068,1.513,1.188
			c0.596,0.078,1.166-0.269,1.493-0.517l-0.058,1.933c-0.189-0.224-0.996-1.111-1.951-1.103c-1.096,0.009-1.975,1.188-1.975,1.188
			s0.651,0.835,1.517,1.082c-1.07,0.12-1.907,1.225-1.907,1.225s0.943,1.223,2.094,1.213c0.268-0.002,0.521-0.075,0.755-0.18
			c-0.393,0.439-0.778,0.878-1.153,1.319c-0.068-0.338-0.204-0.694-0.471-0.96c-0.694-0.694-1.998-0.514-1.998-0.514
			s-0.078,0.612,0.092,1.221c-0.658-0.24-1.389-0.14-1.389-0.14s-0.074,0.583,0.08,1.176c-0.383,0.046-0.787,0.166-1.11,0.429
			c-0.539,0.44-0.732,1.176-0.799,1.691c-0.197,0.002-0.333,0.018-0.333,0.018s-0.178,1.305,0.514,1.998
			c0.324,0.325,0.78,0.454,1.176,0.504c-0.449,0.624-0.873,1.229-1.267,1.805c0.008-0.07,0.18-1.462-0.571-2.214
			c-0.471-0.47-1.193-0.579-1.684-0.592c0.25-0.428,0.544-1.105,0.391-1.758c-0.222-0.951-1.307-1.528-1.541-1.642
			c1.591-2.786,3.224-5.669,4.57-8.048c0.076-0.011,0.132-0.02,0.132-0.02s0.006-0.086,0.005-0.223
			c0.427-0.756,0.825-1.461,1.177-2.086c0.032-0.002,0.063-0.004,0.092-0.007c0.024,0.031,0.91,1.159,1.99,1.151
			c1.096-0.01,1.975-1.19,1.975-1.19s-0.9-1.164-1.994-1.155c-0.7,0.006-1.308,0.487-1.659,0.835
			c-0.004-0.09-0.012-0.192-0.025-0.306c0.83-1.472,1.344-2.389,1.344-2.389l-1.416,1.984c-0.067-0.28-0.181-0.568-0.366-0.817
			c0.254-0.091,0.416-0.174,0.416-0.174s-0.023-0.111-0.076-0.282c0.397,0.007,0.7-0.05,0.7-0.05s0.103-1.375-0.659-2.072
			c0.829-0.29,1.428-1.104,1.428-1.104s-0.104-0.127-0.273-0.29c0.328,0.188,0.702,0.328,1.102,0.337
			c1.316,0.028,2.414-1.357,2.414-1.357s-1.038-1.432-2.355-1.459c-0.357-0.008-0.698,0.09-1.006,0.236
			c-0.221-0.241-0.754-0.747-1.412-0.926c0.148-0.041,0.293-0.096,0.424-0.188c0.707-0.498,0.749-1.66,0.749-1.66
			s-1.107-0.354-1.816,0.144c-0.708,0.499-0.75,1.66-0.75,1.66s0.158,0.05,0.391,0.085c-0.826,0.291-1.423,1.102-1.423,1.102
			s0.911,1.148,2.003,1.125c0.181-0.004,0.352-0.047,0.517-0.105c0.087,0.107,0.235,0.274,0.431,0.457
			c-0.297-0.166-0.636-0.293-1-0.286c-1.091,0.024-1.951,1.211-1.951,1.211s0.22,0.275,0.571,0.553
			c-0.13,0.014-0.212,0.03-0.212,0.03s-0.015,0.245,0.019,0.575c-0.879-0.033-1.722,0.399-1.722,0.399s0.172,0.827,0.678,1.478
			c-0.277-0.042-0.568-0.043-0.849,0.051c-0.684,0.23-1.103,0.929-1.299,1.342c-0.109-0.454-0.343-1.061-0.84-1.399
			c-0.029-0.02-0.062-0.03-0.092-0.047c0.025-0.004,0.052,0,0.077-0.004c1.173-0.223,1.887-1.658,1.887-1.658
			s-0.576-0.509-1.318-0.752c0.042-0.009,0.085-0.008,0.126-0.02c1.147-0.335,1.72-1.831,1.72-1.831s-0.5-0.371-1.156-0.57
			c1.087-0.031,1.943-1.21,1.943-1.21s-0.912-1.146-2.003-1.123c-1.091,0.024-1.951,1.21-1.951,1.21s0.599,0.741,1.402,1.017
			c-0.223-0.016-0.448-0.01-0.67,0.054c-1.146,0.334-1.72,1.831-1.72,1.831s0.501,0.371,1.155,0.57
			c-0.508,0.132-0.924,0.483-1.226,0.829c-0.132-0.457-0.391-1.081-0.879-1.478c0.611-0.056,1.099-0.255,1.099-0.255
			s-0.186-1.592-1.213-2.2c-0.431-0.253-0.939-0.293-1.385-0.256c-0.043-0.194-0.115-0.462-0.235-0.744
			c0.365,0.332,0.967,0.764,1.642,0.748c1.091-0.025,1.951-1.211,1.951-1.211s-0.692-0.867-1.59-1.077
			c1.068-0.059,1.902-1.204,1.902-1.204s-0.912-1.147-2.003-1.124c-1.091,0.024-1.951,1.21-1.951,1.21s0.69,0.869,1.59,1.079
			c-0.859,0.048-1.561,0.789-1.803,1.08c-0.168-0.258-0.383-0.496-0.662-0.662c-0.759-0.448-1.768-0.234-2.242-0.092
			c0.239-0.28,0.484-0.651,0.584-1.074c0.298,0.169,0.641,0.297,1.007,0.289c1.091-0.025,1.951-1.211,1.951-1.211
			s-0.912-1.146-2.003-1.123c-0.501,0.011-0.949,0.269-1.292,0.543c-0.14-0.212-0.295-0.391-0.431-0.531
			c0.344-0.353,0.813-0.96,0.816-1.652c0.002-1.091-1.163-1.98-1.163-1.98s-1.17,0.883-1.173,1.975
			c-0.001,0.698,0.473,1.31,0.817,1.663c-0.316,0.323-0.726,0.863-0.795,1.484c-0.29-0.156-0.625-0.267-0.977-0.268
			c-0.011-0.001-0.022-0.005-0.032-0.007c-0.013-0.001-0.025,0.003-0.038,0.002c-0.013,0.001-0.025-0.003-0.038-0.002
			c-0.011,0.001-0.022,0.005-0.033,0.007c-0.352,0.001-0.687,0.112-0.977,0.268c-0.069-0.622-0.48-1.161-0.795-1.484
			c0.343-0.352,0.818-0.965,0.817-1.663c-0.003-1.092-1.173-1.975-1.173-1.975s-1.165,0.889-1.163,1.98
			c0.003,0.692,0.472,1.299,0.816,1.652c-0.137,0.14-0.291,0.32-0.432,0.531c-0.343-0.274-0.79-0.532-1.292-0.543
			c-1.091-0.023-2.003,1.123-2.003,1.123s0.86,1.186,1.951,1.211c0.367,0.008,0.709-0.121,1.007-0.289
			c0.1,0.423,0.345,0.794,0.583,1.074c-0.475-0.143-1.482-0.357-2.242,0.092c-0.279,0.166-0.494,0.403-0.662,0.662
			c-0.243-0.292-0.944-1.032-1.803-1.08c0.899-0.21,1.59-1.079,1.59-1.079s-0.86-1.186-1.951-1.21
			c-1.091-0.023-2.003,1.124-2.003,1.124s0.835,1.145,1.902,1.204c-0.898,0.21-1.59,1.077-1.59,1.077s0.86,1.186,1.951,1.211
			c0.674,0.015,1.276-0.416,1.641-0.748c-0.12,0.283-0.192,0.551-0.235,0.744c-0.447-0.038-0.955,0.003-1.385,0.256
			c-1.027,0.609-1.214,2.2-1.214,2.2s0.489,0.199,1.099,0.255c-0.488,0.397-0.748,1.021-0.879,1.478
			c-0.302-0.345-0.718-0.696-1.226-0.829c0.654-0.199,1.155-0.57,1.155-0.57s-0.574-1.496-1.72-1.831
			c-0.222-0.064-0.448-0.07-0.67-0.054c0.804-0.276,1.402-1.017,1.402-1.017s-0.86-1.186-1.951-1.21
			c-1.091-0.023-2.003,1.123-2.003,1.123s0.856,1.179,1.943,1.21c-0.655,0.199-1.156,0.57-1.156,0.57s0.574,1.497,1.72,1.831
			c0.042,0.012,0.084,0.011,0.126,0.02c-0.742,0.243-1.318,0.752-1.318,0.752s0.715,1.435,1.888,1.658
			c0.025,0.004,0.051,0.001,0.077,0.004c-0.03,0.017-0.063,0.027-0.092,0.047c-0.497,0.338-0.73,0.945-0.839,1.399
			c-0.197-0.413-0.615-1.112-1.3-1.342c-0.28-0.094-0.572-0.093-0.849-0.051c0.506-0.651,0.678-1.478,0.678-1.478
			s-0.842-0.432-1.721-0.399c0.035-0.329,0.02-0.575,0.02-0.575s-0.082-0.016-0.212-0.03c0.351-0.278,0.571-0.553,0.571-0.553
			s-0.86-1.187-1.951-1.211c-0.364-0.007-0.703,0.119-1,0.286c0.196-0.183,0.343-0.351,0.431-0.457
			c0.165,0.058,0.336,0.101,0.517,0.105c1.092,0.024,2.003-1.125,2.003-1.125s-0.597-0.811-1.424-1.102
			c0.234-0.036,0.392-0.085,0.392-0.085s-0.042-1.162-0.75-1.66s-1.816-0.144-1.816-0.144s0.042,1.162,0.749,1.66
			c0.13,0.092,0.276,0.147,0.424,0.188c-0.658,0.178-1.19,0.685-1.412,0.926c-0.308-0.146-0.648-0.244-1.006-0.236
			c-1.317,0.028-2.355,1.459-2.355,1.459s1.099,1.385,2.414,1.357c0.4-0.009,0.775-0.149,1.103-0.337
			c-0.168,0.163-0.273,0.29-0.273,0.29s0.6,0.814,1.428,1.104c-0.763,0.697-0.659,2.072-0.659,2.072s0.303,0.056,0.7,0.05
			c-0.053,0.171-0.077,0.282-0.077,0.282s0.163,0.083,0.416,0.174c-0.271,0.364-0.387,0.816-0.434,1.186l-0.099-0.143
			c0,0,0.039,0.061,0.098,0.155c-0.015,0.123-0.024,0.234-0.028,0.329c-0.35-0.348-0.959-0.829-1.659-0.835
			c-1.095-0.009-1.995,1.155-1.995,1.155s0.879,1.18,1.975,1.19c1.081,0.008,1.966-1.12,1.99-1.151
			c0.049,0.004,0.097,0.008,0.154,0.011c0.283,0.452,0.671,1.071,1.13,1.805c-0.025,0.292-0.01,0.5-0.01,0.5
			s0.142,0.025,0.348,0.041c0.293,0.468,0.61,0.975,0.945,1.512c0,0.104,0.004,0.177,0.004,0.177s0.05,0.008,0.118,0.018
			c0.982,1.572,2.107,3.377,3.245,5.207c0.001,0.042,0.003,0.067,0.003,0.067s0.023,0.004,0.043,0.007
			c0.832,1.339,1.667,2.685,2.452,3.958c-0.006,0.188,0.003,0.309,0.003,0.309s0.079,0.015,0.206,0.03
			c1.954,3.169,3.559,5.81,3.948,6.555c0.72,1.379,1.102,3.581,1.288,5.042c-2.431-1.46-5.069-2.727-7.791-3.825
			c-0.59-0.998-1.641-2.713-3.063-4.794c0.49-0.004,1.27-0.097,1.767-0.595c0.56-0.56,0.607-1.477,0.592-1.937
			c0.402-0.231,1.155-0.755,1.336-1.529c0.249-1.068-0.691-2.2-0.691-2.2s-1.343,0.599-1.592,1.666
			c-0.153,0.654,0.141,1.331,0.391,1.758c-0.492,0.013-1.214,0.122-1.685,0.592c-0.433,0.433-0.559,1.081-0.587,1.565
			c-0.279-0.4-0.571-0.812-0.874-1.233c0.287-0.078,0.574-0.204,0.798-0.428c0.693-0.693,0.514-1.998,0.514-1.998
			s-0.136-0.016-0.332-0.018c-0.068-0.515-0.261-1.251-0.799-1.691c-0.324-0.263-0.727-0.383-1.11-0.429
			c0.154-0.593,0.08-1.176,0.08-1.176s-0.731-0.1-1.389,0.14c0.17-0.608,0.092-1.221,0.092-1.221s-1.304-0.18-1.998,0.514
			c-0.168,0.167-0.282,0.371-0.362,0.583c-0.227-0.263-0.458-0.525-0.692-0.787c0.062,0.007,0.122,0.024,0.185,0.025
			c1.151,0.01,2.094-1.213,2.094-1.213s-0.837-1.106-1.907-1.225c0.867-0.247,1.517-1.082,1.517-1.082s-0.879-1.179-1.975-1.188
			c-0.617-0.005-1.165,0.361-1.532,0.683l-0.036-1.233c0.304,0.161,0.672,0.288,1.052,0.237c0.907-0.12,1.513-1.188,1.513-1.188
			s-0.863-0.872-1.769-0.752c-0.321,0.043-0.602,0.206-0.834,0.397l-0.118-4.038L40.876,25.4c-0.091,0.127-0.145,0.217-0.145,0.217
			s0.046,0.045,0.116,0.106l-0.268,2.973c-0.733-0.73-1.486-1.443-2.26-2.126c0.42-0.228,0.951-0.614,1.154-1.191
			c0.12-0.345,0.103-0.71,0.034-1.043c0.786-0.101,1.471-0.614,1.471-0.614s-0.525-1.335-1.553-1.624
			c-0.634-0.178-1.309,0.082-1.736,0.308c0.149-0.713-0.023-1.433-0.023-1.433s-0.692-0.021-1.34,0.245
			c0.137-0.701-0.029-1.398-0.029-1.398s-1.434-0.044-2.106,0.787c-0.671,0.832-0.326,2.225-0.326,2.225s0.691,0.02,1.339-0.246
			c-0.136,0.702,0.03,1.398,0.03,1.398s1.434,0.044,2.105-0.787c0.039-0.048,0.063-0.103,0.096-0.155
			c0.119,0.213,0.297,0.478,0.534,0.721c-0.273,0.22-0.526,0.501-0.652,0.858c-0.125,0.354-0.104,0.729-0.029,1.069
			c-0.901-0.746-1.824-1.449-2.767-2.09c0,0,2.045,2.004,4.62,5.107c-0.188-0.013-0.761-0.031-1.324,0.146
			c0.219-0.735,0.091-1.51,0.091-1.51s-1.486-0.158-2.25,0.651c-0.458,0.487-0.551,1.212-0.553,1.714
			c-0.253-0.001-0.643,0.021-1.038,0.134c0.587-0.745,0.78-1.711,0.78-1.711s-1.614-0.815-2.825-0.224
			c-0.779,0.382-1.201,1.252-1.402,1.824l-0.565-0.727l0.531,0.827c-0.087,0.263-0.123,0.443-0.123,0.443s0.216,0.108,0.546,0.217
			l6.072,9.471c-4.186-0.883-7.98-1.451-10.872-1.808c-0.008-0.18-0.024-0.295-0.024-0.295s-0.73-0.093-1.438,0.124
			c-0.253-0.028-0.5-0.055-0.733-0.079c0.006-0.322-0.026-0.549-0.026-0.549s-1.152-0.147-1.965,0.358
			c-0.089-0.008-0.176-0.015-0.257-0.022c0.043-0.47-0.011-0.841-0.011-0.841s-1.494-0.192-2.281,0.608
			c-0.787,0.801-0.571,2.292-0.571,2.292s1.462,0.187,2.256-0.583c-0.095,0.58-0.022,1.088-0.022,1.088s1.41,0.179,2.213-0.546
			c-0.085,0.565-0.015,1.05-0.015,1.05s0.375,0.049,0.85-0.004c-0.186,0.273-0.337,0.586-0.367,0.935
			c-0.005,0.058,0.005,0.114,0.006,0.171c-0.285-0.452-0.614-0.758-0.614-0.758s-1.276,0.802-1.374,1.92
			c-0.098,1.119,1.017,2.132,1.017,2.132s1.276-0.802,1.376-1.92c0.005-0.058-0.006-0.113-0.007-0.17
			c0.285,0.452,0.613,0.757,0.613,0.757s1.276-0.802,1.375-1.92c0.059-0.676-0.325-1.31-0.638-1.709
			c0.015-0.014,0.031-0.026,0.045-0.041c0.36-0.366,0.509-0.875,0.565-1.322c0.763,0.189,1.516,0.383,2.256,0.585
			c-0.112,0.098-0.221,0.207-0.32,0.327c-0.09-0.145-0.156-0.233-0.156-0.233s-1.398,0.563-1.693,1.645
			c-0.295,1.083,0.622,2.278,0.622,2.278s0.803-0.324,1.321-0.953c0.09,0.144,0.156,0.232,0.156,0.232s0.562-0.227,1.049-0.668
			c-0.061,0.62,0.066,1.163,0.066,1.163s1.506,0.063,2.221-0.803c0.471-0.57,0.481-1.399,0.434-1.9
			c0.541,0.17,1.076,0.343,1.603,0.519c-0.421,0.142-0.883,0.386-1.168,0.804c-0.468,0.686-0.329,1.644-0.226,2.098
			c-0.364,0.287-1.077,0.949-1.139,1.78c-0.085,1.119,1.041,2.119,1.041,2.119s1.267-0.816,1.353-1.936
			c0.055-0.717-0.388-1.382-0.713-1.77c0.496-0.098,1.26-0.341,1.667-0.936c0.379-0.555,0.359-1.289,0.283-1.789
			c0.631,0.218,1.247,0.44,1.856,0.664c-0.341,0.232-0.677,0.552-0.84,0.978c-0.09,0.234-0.114,0.479-0.107,0.719
			c-0.284-0.425-0.594-0.705-0.594-0.705s-1.267,0.817-1.352,1.936c-0.085,1.119,1.042,2.119,1.042,2.119s0.161-0.106,0.368-0.287
			c0.044,0.357,0.149,0.767,0.374,1.117c-0.773-0.349-1.683-0.247-1.683-0.247s-0.181,1.461,0.61,2.258s2.253,0.63,2.253,0.63
			s0.142-1.159-0.387-1.975c0.773,0.348,1.684,0.246,1.684,0.246s0.181-1.46-0.61-2.258c-0.423-0.427-1.038-0.576-1.519-0.624
			c0.125-0.217,0.213-0.459,0.246-0.718c0.037,0.068,0.065,0.116,0.065,0.116s0.956-0.277,1.531-0.943
			c-0.016,0.035-0.034,0.068-0.048,0.104c-0.403,1.048,0.39,2.329,0.39,2.329s1.448-0.419,1.851-1.467
			c0.326-0.849-0.128-1.839-0.314-2.189c1.307,0.528,2.559,1.066,3.753,1.607c-0.267,0.354-0.859,1.258-0.694,2.173
			c0.212,1.169,1.587,1.899,1.587,1.899s1.033-1.165,0.821-2.335c-0.099-0.545-0.45-0.989-0.798-1.314
			c3.152,1.468,5.888,2.943,8.165,4.29c6.821,4.036,7.686,8.935,7.686,16.909c0,7.973-5.26,17.701-5.26,17.701l-0.205,0.174H20.042
			v1.24h85.423V84.297z M101.805,37.901c0.004,0.15,0.015,0.321,0.041,0.5c-0.176-0.159-0.379-0.276-0.593-0.359
			C101.461,37.989,101.642,37.943,101.805,37.901z M95.947,39.549c-0.135,0.31-0.246,0.684-0.245,1.068
			c-0.459-0.357-1.068-0.483-1.484-0.527C94.817,39.898,95.393,39.718,95.947,39.549z M87.504,40.207
			c-0.197,0.045-0.396,0.09-0.595,0.137c0.008-0.421-0.047-1.046-0.358-1.539c0.706,0.357,1.608,0.178,1.979,0.079L87.504,40.207z
			 M87.873,27.8c-0.007,0.288,0.015,0.674,0.128,1.052c-0.317-0.1-0.636-0.136-0.889-0.149C87.372,28.389,87.625,28.09,87.873,27.8z
			 M86.308,24.335c-0.069,0.334-0.086,0.698,0.034,1.043c0.252,0.718,1.012,1.143,1.432,1.33c-0.721,0.64-1.422,1.306-2.105,1.987
			l-0.426-4.721C85.515,24.121,85.897,24.282,86.308,24.335z M84.77,33.38c-0.602-0.042-1.161,0.096-1.353,0.15
			c0.229-0.326,0.459-0.649,0.689-0.966C84.274,32.834,84.495,33.129,84.77,33.38z M82.993,29.003
			c0.871-0.107,1.576-0.89,1.754-1.109l-0.053,1.795c-0.085,0.089-0.171,0.177-0.256,0.266
			C84.182,29.68,83.644,29.184,82.993,29.003z M82.967,36.797c-0.37-0.391-0.935-0.509-1.352-0.542
			c0.561-0.903,1.143-1.782,1.736-2.631c0.029,0.321,0.196,1.62,1.058,2.213c0.986,0.678,2.514,0.173,2.514,0.173
			s-0.061-1.264-0.763-2.023c1.161,0.056,2.298-0.755,2.298-0.755s-0.629-1.739-1.944-2.15c-0.429-0.134-0.878-0.107-1.29-0.014
			c0.457-0.596,0.911-1.17,1.352-1.713c0.011,0.498,0.117,1.177,0.553,1.641c0.763,0.81,2.25,0.651,2.25,0.651
			s0.127-0.774-0.091-1.509c0.417,0.131,0.838,0.154,1.106,0.152c0.002,0.503,0.095,1.227,0.554,1.715
			c0.762,0.81,2.249,0.651,2.249,0.651s0.2-1.205-0.326-2.035c0.87,0.242,1.84-0.078,2.264-0.251l-3.483,4.489
			c-0.073-0.429-0.288-1.237-0.895-1.641c-0.849-0.563-2.14-0.113-2.14-0.113s0.087,1.364,0.935,1.928
			c0.585,0.389,1.374,0.295,1.811,0.198l-0.988,1.273c-0.101-0.369-0.299-0.832-0.694-1.096c-0.723-0.479-1.822-0.096-1.822-0.096
			s0.073,1.162,0.795,1.642c0.366,0.243,0.827,0.264,1.195,0.226l-1.164,1.501c-0.052-0.391-0.255-1.443-0.994-1.935
			c-0.918-0.608-2.314-0.121-2.314-0.121s0.059,0.901,0.522,1.586c-0.773-0.406-1.765-0.302-1.765-0.302s-0.244,1.458,0.511,2.262
			c0.239,0.253,0.55,0.411,0.864,0.508c-0.313,0.077-0.627,0.155-0.944,0.236c-0.067-0.261-0.177-0.523-0.373-0.731
			c-0.64-0.678-1.883-0.545-1.883-0.545s-0.174,1.088,0.337,1.782c-1.425,0.389-2.875,0.816-4.334,1.285
			c0.736-1.889,1.697-3.77,2.77-5.576c0.047,0.354,0.16,0.743,0.433,1.034c0.638,0.678,1.882,0.545,1.882,0.545
			S83.605,37.476,82.967,36.797z M81.277,33.547c-0.132,0.161-0.263,0.321-0.392,0.481c-0.011-0.185-0.043-0.39-0.102-0.6
			C80.948,33.488,81.115,33.522,81.277,33.547z M78.89,35.648c0.357-0.292,0.56-0.714,0.678-1.116
			c0.283,0.091,0.569,0.126,0.803,0.134c-0.6,0.757-1.167,1.502-1.706,2.229c-0.068-0.32-0.202-0.651-0.447-0.906
			C78.456,35.918,78.688,35.812,78.89,35.648z M76.518,26.145c-0.076-0.301-0.212-0.607-0.428-0.861
			c0.279,0.146,0.59,0.208,0.876,0.234L76.518,26.145z M76.096,22.887c0.371-0.125,0.666-0.391,0.889-0.674
			c0.095,0.183,0.209,0.357,0.369,0.5c0.367,0.325,0.863,0.434,1.287,0.46L77.8,24.351c-0.096-0.343-0.263-0.698-0.552-0.954
			c-0.388-0.345-0.923-0.45-1.362-0.468C75.956,22.916,76.026,22.91,76.096,22.887z M21.729,37.936
			c0.005-0.034,0.011-0.067,0.015-0.101c0.026,0.006,0.053,0.011,0.08,0.016C21.791,37.878,21.759,37.906,21.729,37.936z
			 M23.969,38.402c0.005-0.031,0.008-0.061,0.012-0.092c0.024,0.005,0.048,0.011,0.073,0.016
			C24.024,38.35,23.997,38.377,23.969,38.402z M30.113,40.617c0.001-0.265-0.051-0.526-0.129-0.765
			c0.369,0.107,0.737,0.215,1.1,0.325C30.758,40.254,30.406,40.389,30.113,40.617z M46.248,34.532
			c0.118,0.402,0.321,0.824,0.679,1.116c0.201,0.164,0.433,0.271,0.672,0.34c-0.141,0.147-0.241,0.32-0.316,0.5
			c-0.458-0.61-0.936-1.233-1.436-1.862C45.977,34.606,46.112,34.575,46.248,34.532z M45.032,33.428
			c-0.014,0.049-0.03,0.096-0.041,0.144c-0.029-0.036-0.059-0.071-0.089-0.107C44.946,33.452,44.989,33.444,45.032,33.428z
			 M42.822,29.003c-0.501,0.139-0.934,0.463-1.224,0.733c-0.015-0.016-0.03-0.031-0.045-0.047l-0.039-1.338
			C41.839,28.639,42.298,28.939,42.822,29.003z M31.265,30.566c0.478,0.128,1.101,0.215,1.679,0.055
			c-0.338,0.534-0.377,1.22-0.361,1.644L31.265,30.566z M38.043,43.994c0.016-0.034,0.034-0.067,0.047-0.102
			c0.166-0.431,0.126-0.898,0.024-1.303c0.441,0.17,0.885,0.34,1.313,0.512C39.139,43.206,38.48,43.487,38.043,43.994z
			 M37.796,38.985c0.432,0.057,0.994,0.06,1.468-0.181c-0.316,0.5-0.366,1.134-0.357,1.556c-0.018-0.004-0.035-0.008-0.054-0.012
			L37.796,38.985z M43.169,41.419c0.51-0.694,0.336-1.78,0.336-1.78s-1.243-0.133-1.882,0.545c-0.197,0.21-0.308,0.472-0.374,0.736
			c-0.322-0.081-0.642-0.16-0.96-0.236c0.319-0.097,0.637-0.254,0.88-0.513c0.755-0.804,0.511-2.262,0.511-2.262
			s-0.992-0.104-1.765,0.302c0.463-0.685,0.522-1.586,0.522-1.586s-1.396-0.487-2.314,0.121c-0.536,0.357-0.789,1.007-0.908,1.488
			L36.4,37.186c0.26-0.018,0.528-0.078,0.759-0.231c0.722-0.48,0.796-1.642,0.796-1.642s-1.099-0.383-1.822,0.096
			c-0.265,0.176-0.441,0.443-0.559,0.712l-0.634-0.817c0.417,0.034,0.919-0.002,1.322-0.271c0.848-0.565,0.935-1.928,0.935-1.928
			s-1.29-0.45-2.139,0.113c-0.438,0.291-0.671,0.793-0.795,1.213l-1.367-1.762c0.466,0.004,1.413-0.069,1.972-0.663
			c0.458-0.488,0.551-1.212,0.553-1.715c0.267,0.002,0.689-0.021,1.106-0.152c-0.219,0.735-0.091,1.509-0.091,1.509
			s1.487,0.159,2.25-0.651c0.654-0.696,0.566-1.875,0.528-2.199c0.625,0.755,1.28,1.576,1.943,2.446
			c-0.534-0.208-1.217-0.359-1.856-0.161c-1.315,0.411-1.944,2.15-1.944,2.15s1.137,0.812,2.298,0.755
			c-0.702,0.759-0.763,2.023-0.763,2.023s1.528,0.505,2.514-0.173c0.987-0.68,1.063-2.286,1.063-2.286s-0.679-0.223-1.425-0.172
			c0.395-0.36,0.678-0.81,0.855-1.146c0.927,1.26,1.854,2.608,2.727,4.013c-0.301-0.015-1.245-0.014-1.779,0.551
			c-0.638,0.678-0.431,1.911-0.431,1.911s1.244,0.133,1.882-0.545c0.483-0.514,0.482-1.342,0.453-1.716
			c1.268,2.061,2.407,4.233,3.243,6.414C46.382,42.33,44.766,41.852,43.169,41.419z M57.726,18.382
			c0.219,0.065,0.544,0.142,0.906,0.166c-0.04,0.019-0.081,0.038-0.12,0.061c-0.385,0.227-0.651,0.593-0.835,0.961
			c-0.244-0.041-0.522-0.065-0.806-0.045C57.289,19.24,57.557,18.795,57.726,18.382z M59.476,23.351
			c0.239-0.037,0.477-0.109,0.694-0.237c0.113-0.067,0.215-0.148,0.309-0.235c0.011,0.243,0.052,0.635,0.187,1.025
			c-0.117,0.018-0.189,0.033-0.189,0.033s-0.028,0.569,0.154,1.168c-0.39-0.056-0.883-0.08-1.364,0.026
			c0.109-0.16,0.199-0.335,0.255-0.527C59.645,24.181,59.591,23.74,59.476,23.351z M68.068,26.303
			c0.033,0.014,0.053,0.022,0.053,0.022s0.429-0.589,0.61-1.322c0.412,0.07,0.832,0.029,1.168-0.038l-3.87,10.907l-1.296-2.852
			c0.719,0.051,1.398-0.594,1.398-0.594s-0.187-0.345-0.507-0.636c0.283-0.061,0.472-0.133,0.472-0.133s-0.032-0.297-0.146-0.671
			c0.853-0.04,1.637-0.636,1.637-0.636s-0.473-1.147-1.373-1.522c0.501-0.052,0.89-0.197,0.89-0.197s-0.016-0.138-0.058-0.337
			c0.81,0.027,1.522-0.211,1.522-0.211S68.518,27.128,68.068,26.303z M68.699,34.053l0.291-1.451
			c0.096,0.403,0.278,0.833,0.62,1.137c0.327,0.29,0.751,0.42,1.147,0.472l-0.453,0.634c-0.075-0.109-0.162-0.21-0.264-0.3
			C69.658,34.208,69.145,34.086,68.699,34.053z M69.008,36.659l-1.152,1.614l0.425-2.127c0.054,0.066,0.111,0.129,0.176,0.187
			C68.621,36.479,68.811,36.583,69.008,36.659z M65.861,18.287c0.039,0.022,0.079,0.04,0.119,0.06
			c-0.144,0.009-0.283,0.027-0.411,0.05c0.001-0.068-0.002-0.191-0.014-0.343C65.647,18.14,65.748,18.22,65.861,18.287z
			 M66.339,23.351c-0.115,0.389-0.169,0.83-0.046,1.253c0.056,0.192,0.146,0.367,0.255,0.527c-0.345-0.076-0.696-0.086-1.013-0.063
			c0.178-0.633,0.121-1.247,0.121-1.247s-0.049-0.009-0.132-0.019c0.072-0.24,0.109-0.479,0.126-0.685
			C65.866,23.243,66.101,23.314,66.339,23.351z M63.196,35.343l1.681,5.379l-1.681,4.708l-1.297-4.708L63.196,35.343z
			 M65.226,19.953c0.139,0.254,0.319,0.499,0.553,0.693c-0.074,0.001-0.147,0.005-0.219,0.011c0-0.009-0.001-0.015-0.001-0.015
			s-1.442-0.258-2.245,0.48c-0.132,0.123-0.237,0.266-0.323,0.417c-0.094-0.149-0.205-0.288-0.345-0.404
			c-0.606-0.507-1.517-0.477-1.977-0.422c-0.191-0.036-0.407-0.063-0.633-0.067c0.207-0.172,0.374-0.385,0.505-0.608
			c0.391,0.042,1.447,0.092,2.092-0.501c0.132-0.122,0.237-0.266,0.323-0.417c0.094,0.149,0.206,0.288,0.345,0.404
			C63.885,20.011,64.752,20.003,65.226,19.953z M64.651,26.346c-0.121,0.012-0.235,0.028-0.339,0.048
			c0.106-0.035,0.212-0.07,0.313-0.122C64.632,26.295,64.643,26.321,64.651,26.346z M63.117,23.362
			c-0.01,0.017-0.02,0.034-0.029,0.05c-0.011-0.018-0.022-0.035-0.034-0.053C63.074,23.361,63.095,23.362,63.117,23.362z
			 M60.839,22.578c-0.037,0.004-0.07,0.008-0.102,0.012c0.02-0.027,0.041-0.052,0.059-0.079
			C60.809,22.534,60.824,22.556,60.839,22.578z M60.381,18.422c-0.164-0.035-0.349-0.063-0.546-0.075
			c0.04-0.02,0.08-0.038,0.119-0.06c0.172-0.102,0.319-0.232,0.446-0.377C60.379,18.122,60.378,18.302,60.381,18.422z
			 M57.367,28.119c-0.05,0.192-0.076,0.346-0.088,0.434l-1.203-3.559c0.305,0.049,0.659,0.069,1.008,0.01
			c0.181,0.733,0.61,1.322,0.61,1.322s0.021-0.008,0.053-0.022c-0.45,0.826-0.501,1.78-0.501,1.78S57.292,28.098,57.367,28.119z
			 M59.565,28.58c0.305-0.19,0.519-0.477,0.676-0.775c0.562-0.444,0.856-1.147,0.997-1.706c0.002,0.001,0.002,0.002,0.004,0.003
			c0.558,0.468,1.377,0.479,1.863,0.434c0.209,0.012,0.491,0.007,0.786-0.04c-0.084,0.026-0.144,0.047-0.144,0.047
			s0.136,1.459,1.063,2.036c0.119,0.073,0.244,0.128,0.373,0.169c-0.71,0.148-1.298,0.596-1.298,0.596s0.003,0.008,0.004,0.009
			c-0.298,0.007-0.566,0.057-0.773,0.107l-0.928-2.042l-0.496,1.766c-0.383-0.236-1.17-0.632-1.908-0.431
			c-1.023,0.278-1.555,1.597-1.555,1.597s0.137,0.103,0.349,0.224c-0.182,0.408-0.257,0.799-0.284,0.977l-0.982-2.906
			C57.511,28.716,58.716,29.106,59.565,28.58z M61.206,30.91l-0.139,0.494c-0.049,0.001-0.097-0.003-0.147,0.005
			c-0.056,0.009-0.107,0.029-0.16,0.046C60.943,31.298,61.091,31.112,61.206,30.91z M73.814,37.256
			c-0.016,0.46,0.031,1.377,0.591,1.937c0.758,0.759,2.172,0.578,2.215,0.573c-1.318,1.928-2.315,3.537-2.927,4.563
			c-2.907,1.116-5.764,2.41-8.425,3.905c0.255-1.071,0.826-2.657,2.107-4.677c0.427-0.673,1.104-1.806,1.927-3.212
			c-0.059,0.135-0.471,1.121-0.083,1.863c0.418,0.796,1.609,0.995,1.609,0.995s0.514-1.093,0.096-1.89
			c-0.415-0.789-1.586-0.991-1.606-0.995c0.415-0.709,0.866-1.484,1.344-2.312c-0.026,0.245-0.115,1.481,0.576,2.173
			c0.77,0.77,2.218,0.571,2.218,0.571s0.201-1.449-0.57-2.22c-0.716-0.716-2.015-0.595-2.197-0.574
			c0.584-1.011,1.205-2.092,1.842-3.204c-0.089,0.308-0.132,0.642-0.055,0.974C72.659,36.501,73.411,37.025,73.814,37.256z
			 M71.511,32.339c0.154,0.07,0.314,0.119,0.475,0.152l-0.245,0.343C71.684,32.663,71.608,32.496,71.511,32.339z M73.021,31.041
			c-0.1-0.229-0.239-0.448-0.436-0.621c-0.78-0.691-2.15-0.418-2.15-0.418s-0.067,0.969,0.363,1.693
			c-0.548-0.266-1.197-0.266-1.581-0.234l0.995-4.976c0.222,0.315,0.53,0.638,0.944,0.773c0.207,0.069,0.421,0.078,0.63,0.062
			c0.003,0.441,0.084,1.466,0.732,2.042c0.383,0.339,0.898,0.463,1.345,0.497L73.021,31.041z M74.177,22.701
			c0,0-0.002-0.053-0.013-0.142c0.245,0.134,0.672,0.33,1.142,0.389c-0.129,0.015-0.212,0.03-0.212,0.03s-0.081,1.203,0.535,1.929
			c-0.785-0.408-1.832-0.2-1.832-0.2s-0.106,1.395,0.673,2.089c0.359,0.317,0.838,0.426,1.256,0.457l-0.998,1.398
			c-0.101-0.389-0.282-0.798-0.612-1.091c-0.396-0.351-0.932-0.471-1.39-0.5c0.264-0.123,0.438-0.24,0.438-0.24
			s-0.426-1.241-1.355-1.547c-0.475-0.156-0.988-0.038-1.377,0.116l0.121-0.607c0.018-0.006,0.029-0.011,0.029-0.011
			s-0.003-0.028-0.011-0.078l0.186-0.932c0.216,0.382,0.581,0.871,1.12,1.049c0.928,0.304,2.008-0.44,2.008-0.44
			s-0.426-1.241-1.355-1.547c-0.587-0.194-1.233,0.033-1.629,0.226l0.325-1.626c0.131,0.405,0.359,0.86,0.764,1.137
			C72.851,23.146,74.177,22.701,74.177,22.701z M70.886,19.772c-0.012,0.023-0.021,0.038-0.021,0.038s0.401,0.354,0.961,0.615
			c-0.439,0.038-0.769,0.149-0.769,0.149s0.018,0.335,0.136,0.746l-0.164,0.463c-0.084-0.43-0.356-1.439-1.092-1.939
			C70.278,19.868,70.611,19.828,70.886,19.772z M70.942,22.028l-0.624,1.76c-0.18-0.447-0.474-0.937-0.949-1.219
			c-0.436-0.257-0.955-0.295-1.408-0.254c-0.144-0.417-0.39-0.906-0.792-1.24c0.193-0.004,0.378-0.023,0.547-0.052
			c0.183,0.368,0.45,0.734,0.836,0.962C69.406,22.488,70.571,22.156,70.942,22.028z M68.09,18.382
			c0.169,0.414,0.437,0.859,0.854,1.142c-0.284-0.019-0.562,0.004-0.806,0.045c-0.183-0.368-0.45-0.734-0.835-0.961
			c-0.039-0.023-0.079-0.041-0.12-0.061C67.545,18.523,67.87,18.446,68.09,18.382z M60.42,13.085
			c0.169,0.166,0.299,0.267,0.299,0.267s0.366-0.286,0.687-0.724c0.237,0.191,0.553,0.399,0.916,0.524
			c0.066,0.024,0.134,0.041,0.203,0.058c0.054,0.013,0.108,0.024,0.164,0.032c0.034,0.004,0.066,0.017,0.101,0.019
			c0.04,0.003,0.079-0.006,0.118-0.007c0.04,0.001,0.078,0.01,0.118,0.007c0.035-0.002,0.066-0.015,0.101-0.019
			c0.056-0.008,0.109-0.019,0.164-0.032c0.069-0.017,0.137-0.033,0.204-0.058c0.363-0.125,0.679-0.333,0.916-0.524
			c0.322,0.439,0.687,0.724,0.687,0.724s0.13-0.102,0.299-0.267c0.04,0.214,0.132,0.603,0.317,0.999
			c-0.691-0.023-1.319,0.211-1.319,0.211s0.009,0.074,0.027,0.179c-0.507-0.232-1.097-0.235-1.48-0.2
			c-0.48-0.027-1.335,0.009-1.888,0.517c-0.322,0.297-0.491,0.709-0.58,1.097c-0.306-0.06-0.681-0.096-1.055-0.048
			c0.444-0.621,0.549-1.417,0.56-1.52C60.247,13.85,60.372,13.342,60.42,13.085z M47.931,24.763l-1.098-1.583
			c0.47,0.014,1.156-0.05,1.629-0.468c0.16-0.142,0.275-0.317,0.369-0.5c0.224,0.283,0.518,0.549,0.89,0.674
			c0.069,0.023,0.14,0.029,0.21,0.042c-0.44,0.019-0.974,0.124-1.362,0.468C48.158,23.761,47.995,24.315,47.931,24.763z
			 M49.214,26.611l-0.747-1.077c0.367,0.007,0.847-0.035,1.259-0.25C49.391,25.678,49.259,26.202,49.214,26.611z M49.667,27.263
			c0.471,0.019,1.19-0.036,1.677-0.468c0.779-0.693,0.674-2.089,0.674-2.089s-1.047-0.208-1.832,0.2
			c0.617-0.726,0.535-1.929,0.535-1.929s-0.082-0.016-0.212-0.03c0.47-0.059,0.897-0.255,1.142-0.389
			c-0.011,0.089-0.014,0.142-0.014,0.142s1.327,0.445,2.188-0.141c0.861-0.589,0.933-1.986,0.933-1.986s-0.331-0.111-0.769-0.149
			c0.56-0.26,0.96-0.615,0.96-0.615s-0.008-0.016-0.02-0.038c0.275,0.056,0.608,0.096,0.949,0.072
			c-0.948,0.645-1.127,2.141-1.127,2.141s1.483,0.607,2.512,0.001c0.386-0.228,0.652-0.594,0.835-0.962
			c0.17,0.029,0.355,0.049,0.548,0.052c-0.403,0.335-0.648,0.824-0.792,1.24c-0.453-0.041-0.972-0.003-1.408,0.254
			c-0.398,0.235-0.668,0.618-0.852,0.999l-0.42-1.243l0.245,1.671c-0.146,0.429-0.187,0.773-0.187,0.773s0.122,0.049,0.316,0.106
			L55.64,25.5c-0.396-0.194-1.045-0.423-1.635-0.229c-0.929,0.306-1.355,1.547-1.355,1.547s0.174,0.118,0.439,0.24
			c-0.458,0.03-0.994,0.149-1.39,0.5c-0.485,0.43-0.652,1.111-0.707,1.613L49.667,27.263z M52.639,31.545l-1.164-1.677
			c0.508,0.022,1.292-0.036,1.822-0.505c0.648-0.576,0.729-1.601,0.732-2.042c0.209,0.016,0.423,0.007,0.63-0.062
			c0.518-0.17,0.875-0.629,1.094-1.005l0.765,5.202c-0.389-0.025-0.989-0.009-1.5,0.239c0.429-0.724,0.363-1.693,0.363-1.693
			s-1.37-0.274-2.15,0.418C52.89,30.721,52.725,31.152,52.639,31.545z M53.939,33.419l-0.599-0.863
			c0.303-0.013,0.649-0.073,0.964-0.216C54.092,32.682,53.988,33.078,53.939,33.419z M55.264,35.327l-0.753-1.085
			c0.501,0.008,1.206-0.07,1.695-0.503c0.253-0.225,0.418-0.519,0.526-0.82l0.17,1.156c-0.389,0.055-0.805,0.186-1.127,0.471
			C55.533,34.761,55.372,35.04,55.264,35.327z M56.283,36.796c0.331-0.052,0.675-0.163,0.964-0.376l0.329,2.238L56.283,36.796z
			 M59.785,35.968l-1.45-4.291c0.226,0.077,1.112,0.343,1.878,0.095c-0.333,0.295-0.529,0.655-0.529,0.655s0.416,0.4,0.942,0.55
			L59.785,35.968z"/>
	</g>
	<g>
		<path fill="#A8A8A8" d="M95.226,56.114c0,0,0.033-1.471-0.832-2.186c-0.866-0.715-2.304-0.403-2.304-0.403
			s-0.035,1.472,0.831,2.186C93.788,56.426,95.226,56.114,95.226,56.114z"/>
	</g>
	<g>
		<path fill="#A8A8A8" d="M92.886,52.565c0.519-0.109,0.935-0.461,1.233-0.802c0.234,0.125,0.403,0.189,0.403,0.189
			s0.886-1.218,0.562-2.293c-0.324-1.075-1.736-1.6-1.736-1.6s-0.835,1.158-0.576,2.211c-0.119,0-0.24,0.006-0.359,0.031
			c-1.099,0.23-1.753,1.549-1.753,1.549S91.787,52.795,92.886,52.565z"/>
	</g>
	<g>
		<path fill="#A8A8A8" d="M102.565,49.373c1.03-0.448,1.403-1.872,1.403-1.872s-1.296-0.696-2.325-0.249
			c-1.03,0.448-1.404,1.871-1.404,1.871S101.535,49.821,102.565,49.373z"/>
	</g>
	<g>
		<path fill="#A8A8A8" d="M99.959,53.195c0,0,1.019-1.11,0.82-2.215s-1.542-1.788-1.542-1.788s-1.02,1.109-0.821,2.214
			C98.616,52.512,99.959,53.195,99.959,53.195z"/>
	</g>
	<g>
		<path fill="#A8A8A8" d="M96.487,52.933c0,0,1.267-0.816,1.354-1.935c0.086-1.119-1.041-2.119-1.041-2.119
			s-1.267,0.816-1.354,1.934C95.36,51.933,96.487,52.933,96.487,52.933z"/>
	</g>
	<g>
		<path fill="#A8A8A8" d="M100.567,46.558c0.178-1.108-0.864-2.197-0.864-2.197s-1.329,0.709-1.507,1.817
			c-0.176,1.109,0.865,2.198,0.865,2.198S100.389,47.667,100.567,46.558z"/>
	</g>
	<g>
		<path fill="#A8A8A8" d="M97.526,46.838c0.304-1.081-0.605-2.282-0.605-2.282s-1.402,0.552-1.706,1.632
			c-0.303,1.082,0.607,2.283,0.607,2.283S97.222,47.919,97.526,46.838z"/>
	</g>
	<g>
		<path fill="#A8A8A8" d="M106.601,41.035c-0.877-0.702-2.337-0.334-2.337-0.334s-0.04,1.507,0.836,2.209
			c0.877,0.701,2.339,0.333,2.339,0.333S107.477,41.736,106.601,41.035z"/>
	</g>
	<g>
		<path fill="#A8A8A8" d="M109.132,36.597c-0.983-0.542-2.36,0.069-2.36,0.069s0.217,1.492,1.2,2.034
			c0.984,0.542,2.361-0.07,2.361-0.07S110.115,37.14,109.132,36.597z"/>
	</g>
	<g>
		<path fill="#A8A8A8" d="M109.679,35.865c0.891-0.683,0.885-2.19,0.885-2.19s-1.453-0.399-2.345,0.282
			c-0.89,0.682-0.885,2.189-0.885,2.189S108.787,36.546,109.679,35.865z"/>
	</g>
	<g>
		<path fill="#A8A8A8" d="M107.135,34.759c0.228-1.1-0.761-2.235-0.761-2.235s-1.361,0.647-1.59,1.746
			c-0.229,1.098,0.761,2.235,0.761,2.235S106.906,35.858,107.135,34.759z"/>
	</g>
	<g>
		<path fill="#A8A8A8" d="M102.695,32.811c0,0-0.832,1.256-0.463,2.315c0.369,1.06,1.803,1.524,1.803,1.524s0.835-1.256,0.465-2.316
			C104.128,33.275,102.695,32.811,102.695,32.811z"/>
	</g>
	<g>
		<path fill="#A8A8A8" d="M100.955,31.496c0,0,1.389,0.585,2.362,0.024c0.972-0.562,1.16-2.058,1.16-2.058s-1.39-0.583-2.362-0.023
			C101.145,30,100.955,31.496,100.955,31.496z"/>
	</g>
	<g>
		<path fill="#A8A8A8" d="M96.53,29.785c-0.144,0.754,0.277,1.508,0.56,1.914c-0.45,0.474-1.402,1.638-1.316,2.909
			c-0.524-0.858-1.385-1.413-1.385-1.413s-1.467,1.308-1.353,2.769c0.115,1.46,1.771,2.522,1.771,2.522s1.4-1.251,1.355-2.672
			c0.591,1.029,1.635,1.7,1.635,1.7s0.975-0.872,1.38-2.025c0.476,0.833,1.322,1.377,1.322,1.377s1.353-1.206,1.248-2.551
			c-0.108-1.346-1.633-2.324-1.633-2.324s-0.671,0.601-1.03,1.427c-0.349-0.74-0.961-1.321-1.365-1.649
			c0.311-0.213,0.722-0.564,0.974-1.024c0.232,0.449,0.506,0.759,0.506,0.759s1.352-0.668,1.564-1.771
			c0.21-1.103-0.797-2.224-0.797-2.224s-0.932,0.47-1.367,1.264c-0.232-0.449-0.506-0.759-0.506-0.759S96.742,28.683,96.53,29.785z"
			/>
	</g>
	<g>
		<path fill="#A8A8A8" d="M98.619,26.053c0,0,0.712,1.33,1.821,1.506c1.109,0.175,2.196-0.867,2.196-0.867s-0.712-1.328-1.82-1.505
			C99.707,25.01,98.619,26.053,98.619,26.053z"/>
	</g>
	<g>
		<path fill="#A8A8A8" d="M100.528,23.632c0.536-0.986-0.082-2.36-0.082-2.36s-1.491,0.226-2.027,1.212
			c-0.536,0.987,0.082,2.361,0.082,2.361S99.991,24.617,100.528,23.632z"/>
	</g>
	<g>
		<path fill="#A8A8A8" d="M96.719,20.451c0.795-0.792,0.593-2.286,0.593-2.286s-1.493-0.208-2.289,0.584
			c-0.795,0.793-0.593,2.286-0.593,2.286S95.923,21.242,96.719,20.451z"/>
	</g>
	<g>
		<path fill="#A8A8A8" d="M85.622,17.869c-0.247,0.25-0.46,0.548-0.571,0.901c-0.396,1.255,0.625,2.698,0.625,2.698
			s1.666-0.594,2.063-1.851c0.257-0.816-0.084-1.709-0.356-2.236c0.338,0.159,0.615,0.231,0.615,0.231s0.672-1.203,0.262-2.143
			c-0.411-0.941-1.751-1.264-1.751-1.264s-0.314,0.577-0.377,1.243c-0.394,0.018-0.833,0.108-1.177,0.383
			c-0.802,0.641-0.767,2.018-0.767,2.018S84.917,18.031,85.622,17.869z M86.762,16.994c0.021,0.016,0.042,0.031,0.063,0.048
			c-0.041,0.019-0.085,0.041-0.133,0.065C86.715,17.068,86.741,17.032,86.762,16.994z"/>
	</g>
	<g>
		<path fill="#A8A8A8" d="M80.277,28.318c0,0-0.9-1.163-1.994-1.155c-1.095,0.009-1.975,1.188-1.975,1.188s0.898,1.165,1.994,1.156
			C79.398,29.498,80.277,28.318,80.277,28.318z"/>
	</g>
	<g>
		<path fill="#A8A8A8" d="M79.124,30.527c0,0-0.899-1.163-1.994-1.154s-1.975,1.188-1.975,1.188s0.899,1.165,1.995,1.156
			C78.245,31.707,79.124,30.527,79.124,30.527z"/>
	</g>
	<g>
		<path fill="#A8A8A8" d="M74.002,32.867c0,0,0.898,1.165,1.994,1.156c1.096-0.01,1.975-1.19,1.975-1.19s-0.9-1.163-1.994-1.154
			C74.882,31.687,74.002,32.867,74.002,32.867z"/>
	</g>
	<g>
		<path fill="#A8A8A8" d="M82.198,25.916c0,0-0.899-1.163-1.994-1.155c-1.095,0.01-1.975,1.188-1.975,1.188s0.898,1.165,1.994,1.156
			C81.32,27.095,82.198,25.916,82.198,25.916z"/>
	</g>
	<g>
		<path fill="#A8A8A8" d="M90.571,19.712c0.306-0.053,0.575-0.202,0.807-0.382c-0.001,0.232,0.032,0.469,0.129,0.692
			c0.411,0.94,1.749,1.264,1.749,1.264s0.673-1.203,0.263-2.143c-0.406-0.926-1.705-1.253-1.744-1.262
			c-0.403-0.254-0.996-0.527-1.596-0.422c-1.052,0.184-1.712,1.458-1.712,1.458S89.519,19.894,90.571,19.712z"/>
	</g>
	<g>
		<path fill="#A8A8A8" d="M91.147,16.608c0.795-0.792,0.593-2.286,0.593-2.286s-1.493-0.208-2.289,0.584
			c-0.795,0.793-0.593,2.286-0.593,2.286S90.351,17.399,91.147,16.608z"/>
	</g>
	<g>
		<path fill="#A8A8A8" d="M83.767,15.676c0,0,0.968-0.772,0.946-1.694s-1.026-1.647-1.026-1.647s-0.968,0.772-0.946,1.695
			C82.763,14.952,83.767,15.676,83.767,15.676z"/>
	</g>
	<g>
		<path fill="#A8A8A8" d="M79.354,10.642c0.358-1.03-0.452-2.251-0.452-2.251s-1.394,0.452-1.754,1.483
			c-0.358,1.031,0.453,2.251,0.453,2.251S78.993,11.673,79.354,10.642z"/>
	</g>
	<g>
		<path fill="#A8A8A8" d="M72.951,8.417c0,0,1.168-0.883,1.172-1.974c0.002-1.091-1.163-1.98-1.163-1.98s-1.17,0.883-1.173,1.974
			C71.785,7.529,72.951,8.417,72.951,8.417z"/>
	</g>
	<g>
		<path fill="#A8A8A8" d="M70.357,9.774c0.928,0.575,2.297,0.05,2.297,0.05s-0.138-1.459-1.065-2.035s-2.295-0.051-2.295-0.051
			S69.43,9.197,70.357,9.774z"/>
	</g>
	<g>
		<path fill="#A8A8A8" d="M72.933,9.775c0,0,1.135,0.632,2.023,0.244c0.886-0.388,1.192-1.652,1.192-1.652s-1.137-0.634-2.024-0.245
			C73.237,8.511,72.933,9.775,72.933,9.775z"/>
	</g>
	<g>
		<path fill="#A8A8A8" d="M73.412,12.314c0,0,0.838,1.011,1.814,0.97c0.975-0.042,1.724-1.119,1.724-1.119s-0.837-1.011-1.813-0.97
			C74.159,11.236,73.412,12.314,73.412,12.314z"/>
	</g>
	<g>
		<path fill="#A8A8A8" d="M82.981,18.544c-1.077-0.446-2.43,0.343-2.43,0.343s0.396,1.516,1.474,1.963
			c1.078,0.447,2.431-0.343,2.431-0.343S84.058,18.993,82.981,18.544z"/>
	</g>
	<g>
		<path fill="#A8A8A8" d="M90.67,56.81c0,0,1.017-1.063,0.859-2.175s-1.43-1.85-1.43-1.85s-1.017,1.063-0.86,2.175
			C89.397,56.071,90.67,56.81,90.67,56.81z"/>
	</g>
	<g>
		<path fill="#A8A8A8" d="M89.451,53.253c0.389-1.053-0.379-2.307-0.379-2.307s-1.401,0.452-1.79,1.506s0.38,2.308,0.38,2.308
			S89.061,54.306,89.451,53.253z"/>
	</g>
	<g>
		<path fill="#A8A8A8" d="M86.924,51.514c0.661-0.908,0.26-2.324,0.26-2.324s-1.47,0.056-2.131,0.965
			c-0.66,0.909-0.26,2.325-0.26,2.325S86.263,52.422,86.924,51.514z"/>
	</g>
	<g>
		<path fill="#A8A8A8" d="M85.745,48.454c0.511-1-0.105-2.337-0.105-2.337s-1.444,0.285-1.954,1.285s0.106,2.337,0.106,2.337
			S85.235,49.454,85.745,48.454z"/>
	</g>
	<g>
		<path fill="#A8A8A8" d="M32.894,55.711c0.866-0.715,0.831-2.186,0.831-2.186s-1.438-0.312-2.304,0.403
			c-0.866,0.715-0.832,2.186-0.832,2.186S32.027,56.426,32.894,55.711z"/>
	</g>
	<g>
		<path fill="#A8A8A8" d="M24.172,47.252c-1.03-0.448-2.325,0.249-2.325,0.249s0.373,1.424,1.403,1.872s2.326-0.25,2.326-0.25
			S25.202,47.7,24.172,47.252z"/>
	</g>
	<g>
		<path fill="#A8A8A8" d="M25.036,50.98c-0.199,1.105,0.82,2.215,0.82,2.215s1.343-0.683,1.543-1.788
			c0.199-1.105-0.821-2.214-0.821-2.214S25.235,49.876,25.036,50.98z"/>
	</g>
	<g>
		<path fill="#A8A8A8" d="M29.328,52.933c0,0,1.127-1,1.041-2.12c-0.087-1.119-1.354-1.934-1.354-1.934s-1.127,1-1.04,2.119
			C28.061,52.117,29.328,52.933,29.328,52.933z"/>
	</g>
	<g>
		<path fill="#A8A8A8" d="M32.468,48.059c0,0-1.412,0.525-1.736,1.6c-0.324,1.075,0.561,2.293,0.561,2.293s0.17-0.064,0.403-0.189
			c0.298,0.341,0.713,0.693,1.233,0.802c1.099,0.23,2.227-0.715,2.227-0.715s-0.654-1.318-1.752-1.549
			c-0.12-0.025-0.24-0.031-0.359-0.031C33.302,49.217,32.468,48.059,32.468,48.059z"/>
	</g>
	<g>
		<path fill="#A8A8A8" d="M27.62,46.178c-0.178-1.108-1.507-1.817-1.507-1.817s-1.042,1.089-0.864,2.197
			c0.177,1.109,1.506,1.819,1.506,1.819S27.796,47.287,27.62,46.178z"/>
	</g>
	<g>
		<path fill="#A8A8A8" d="M28.894,44.556c0,0-0.91,1.201-0.605,2.282c0.304,1.081,1.705,1.634,1.705,1.634s0.91-1.202,0.607-2.283
			C30.297,45.108,28.894,44.556,28.894,44.556z"/>
	</g>
	<g>
		<path fill="#A8A8A8" d="M21.552,40.701c0,0-1.461-0.368-2.338,0.334c-0.876,0.701-0.837,2.207-0.837,2.207
			s1.461,0.368,2.338-0.333S21.552,40.701,21.552,40.701z"/>
	</g>
	<g>
		<path fill="#A8A8A8" d="M16.683,36.597c-0.982,0.542-1.201,2.033-1.201,2.033s1.377,0.611,2.361,0.07
			c0.983-0.542,1.2-2.034,1.2-2.034S17.665,36.056,16.683,36.597z"/>
	</g>
	<g>
		<path fill="#A8A8A8" d="M16.136,35.865c0.892,0.682,2.345,0.281,2.345,0.281s0.006-1.506-0.885-2.189
			c-0.892-0.681-2.345-0.282-2.345-0.282S15.245,35.181,16.136,35.865z"/>
	</g>
	<g>
		<path fill="#A8A8A8" d="M20.271,36.505c0,0,0.989-1.137,0.76-2.235c-0.229-1.099-1.59-1.746-1.59-1.746s-0.99,1.136-0.762,2.235
			C18.91,35.858,20.271,36.505,20.271,36.505z"/>
	</g>
	<g>
		<path fill="#A8A8A8" d="M23.584,35.126c0.368-1.06-0.464-2.315-0.464-2.315s-1.433,0.464-1.805,1.524
			c-0.369,1.06,0.465,2.316,0.465,2.316S23.214,36.186,23.584,35.126z"/>
	</g>
	<g>
		<path fill="#A8A8A8" d="M22.498,31.52c0.972,0.561,2.362-0.024,2.362-0.024S24.671,30,23.699,29.439
			c-0.972-0.56-2.361,0.023-2.361,0.023S21.526,30.958,22.498,31.52z"/>
	</g>
	<g>
		<path fill="#A8A8A8" d="M25.85,27.51c0,0-1.008,1.12-0.797,2.224c0.212,1.102,1.563,1.771,1.563,1.771s0.273-0.309,0.506-0.759
			c0.253,0.46,0.664,0.811,0.975,1.024c-0.404,0.328-1.015,0.91-1.364,1.649c-0.36-0.826-1.031-1.427-1.031-1.427
			s-1.525,0.978-1.632,2.324c-0.106,1.345,1.248,2.551,1.248,2.551s0.846-0.543,1.322-1.377c0.404,1.154,1.38,2.025,1.38,2.025
			s1.044-0.671,1.634-1.7c-0.045,1.421,1.356,2.672,1.356,2.672s1.655-1.062,1.771-2.522c0.114-1.461-1.354-2.769-1.354-2.769
			s-0.861,0.555-1.385,1.413c0.085-1.271-0.866-2.435-1.316-2.909c0.283-0.406,0.705-1.16,0.561-1.914
			c-0.212-1.102-1.563-1.771-1.563-1.771s-0.274,0.31-0.506,0.759C26.782,27.98,25.85,27.51,25.85,27.51z"/>
	</g>
	<g>
		<path fill="#A8A8A8" d="M25.376,27.559c1.109-0.177,1.82-1.506,1.82-1.506s-1.088-1.042-2.197-0.866
			c-1.108,0.177-1.82,1.505-1.82,1.505S24.267,27.734,25.376,27.559z"/>
	</g>
	<g>
		<path fill="#A8A8A8" d="M27.314,24.845c0,0,0.619-1.374,0.083-2.361c-0.537-0.986-2.028-1.212-2.028-1.212
			s-0.618,1.375-0.082,2.36C25.824,24.617,27.314,24.845,27.314,24.845z"/>
	</g>
	<g>
		<path fill="#A8A8A8" d="M31.385,21.035c0,0,0.202-1.493-0.593-2.286c-0.796-0.792-2.289-0.584-2.289-0.584
			s-0.201,1.493,0.593,2.286C29.892,21.242,31.385,21.035,31.385,21.035z"/>
	</g>
	<g>
		<path fill="#A8A8A8" d="M34.308,20.022c0.097-0.223,0.13-0.459,0.129-0.692c0.233,0.18,0.501,0.329,0.807,0.382
			c1.052,0.182,2.103-0.795,2.103-0.795s-0.659-1.274-1.712-1.458c-0.599-0.104-1.192,0.168-1.595,0.422
			c-0.038,0.009-1.338,0.336-1.744,1.262c-0.41,0.94,0.263,2.143,0.263,2.143S33.897,20.962,34.308,20.022z"/>
	</g>
	<g>
		<path fill="#A8A8A8" d="M38.433,17.381c-0.271,0.527-0.612,1.419-0.355,2.236c0.397,1.256,2.062,1.851,2.062,1.851
			s1.021-1.443,0.625-2.698c-0.111-0.353-0.325-0.652-0.571-0.901c0.705,0.162,1.434-0.021,1.434-0.021s0.034-1.376-0.767-2.018
			c-0.345-0.275-0.784-0.365-1.178-0.383c-0.062-0.666-0.377-1.243-0.377-1.243s-1.339,0.323-1.75,1.264
			c-0.41,0.94,0.262,2.143,0.262,2.143S38.095,17.54,38.433,17.381z M39.053,16.994c0.02,0.039,0.047,0.075,0.07,0.113
			c-0.048-0.024-0.092-0.046-0.133-0.065C39.011,17.025,39.033,17.01,39.053,16.994z"/>
	</g>
	<g>
		<path fill="#A8A8A8" d="M47.533,27.163c-1.095-0.008-1.995,1.155-1.995,1.155s0.879,1.18,1.975,1.19
			c1.096,0.009,1.995-1.156,1.995-1.156S48.628,27.172,47.533,27.163z"/>
	</g>
	<g>
		<path fill="#A8A8A8" d="M48.685,29.373c-1.095-0.009-1.994,1.154-1.994,1.154s0.879,1.18,1.974,1.19
			c1.096,0.008,1.995-1.156,1.995-1.156S49.781,29.382,48.685,29.373z"/>
	</g>
	<g>
		<path fill="#A8A8A8" d="M47.844,32.833c0,0,0.879,1.18,1.975,1.19c1.096,0.009,1.995-1.156,1.995-1.156s-0.879-1.179-1.975-1.188
			C48.744,31.669,47.844,32.833,47.844,32.833z"/>
	</g>
	<g>
		<path fill="#A8A8A8" d="M45.611,24.761c-1.095-0.009-1.994,1.155-1.994,1.155s0.879,1.18,1.975,1.19
			c1.096,0.009,1.994-1.156,1.994-1.156S46.707,24.77,45.611,24.761z"/>
	</g>
	<g>
		<path fill="#A8A8A8" d="M54.987,43.203c0,0,1.191-0.199,1.609-0.995c0.417-0.796-0.095-1.89-0.095-1.89s-1.191,0.199-1.61,0.995
			C54.473,42.11,54.987,43.203,54.987,43.203z"/>
	</g>
	<g>
		<path fill="#A8A8A8" d="M52.929,38.531c-0.771,0.771-0.57,2.22-0.57,2.22s1.448,0.198,2.219-0.571
			c0.769-0.77,0.571-2.22,0.571-2.22S53.7,37.761,52.929,38.531z"/>
	</g>
	<g>
		<path fill="#A8A8A8" d="M36.957,17.193c0,0,0.203-1.493-0.593-2.286c-0.796-0.792-2.288-0.584-2.288-0.584
			s-0.202,1.493,0.593,2.286C35.464,17.399,36.957,17.193,36.957,17.193z"/>
	</g>
	<g>
		<path fill="#A8A8A8" d="M42.048,15.676c0,0,1.004-0.724,1.027-1.646c0.022-0.923-0.947-1.695-0.947-1.695
			s-1.004,0.725-1.026,1.647C41.081,14.904,42.048,15.676,42.048,15.676z"/>
	</g>
	<g>
		<path fill="#A8A8A8" d="M48.215,12.126c0,0,0.811-1.22,0.453-2.251c-0.36-1.031-1.754-1.483-1.754-1.483s-0.81,1.22-0.452,2.251
			C46.822,11.673,48.215,12.126,48.215,12.126z"/>
	</g>
	<g>
		<path fill="#A8A8A8" d="M52.865,8.417c0,0,1.165-0.888,1.163-1.98c-0.003-1.092-1.173-1.974-1.173-1.974s-1.165,0.889-1.163,1.98
			C51.696,7.534,52.865,8.417,52.865,8.417z"/>
	</g>
	<g>
		<path fill="#A8A8A8" d="M53.162,9.825c0,0,1.368,0.524,2.296-0.05c0.927-0.577,1.064-2.036,1.064-2.036s-1.369-0.524-2.296,0.051
			C53.3,8.366,53.162,9.825,53.162,9.825z"/>
	</g>
	<g>
		<path fill="#A8A8A8" d="M50.859,10.019c0.887,0.388,2.023-0.244,2.023-0.244s-0.304-1.264-1.19-1.654
			c-0.888-0.389-2.024,0.245-2.024,0.245S49.973,9.631,50.859,10.019z"/>
	</g>
	<g>
		<path fill="#A8A8A8" d="M50.589,13.284c0.977,0.041,1.814-0.97,1.814-0.97s-0.748-1.077-1.725-1.119
			c-0.977-0.041-1.813,0.97-1.813,0.97S49.614,13.242,50.589,13.284z"/>
	</g>
	<g>
		<path fill="#A8A8A8" d="M53.938,24.81c0.928-0.306,1.356-1.548,1.356-1.548s-1.079-0.745-2.008-0.439
			c-0.929,0.306-1.355,1.547-1.355,1.547S53.01,25.114,53.938,24.81z"/>
	</g>
	<g>
		<path fill="#A8A8A8" d="M43.791,20.851c1.078-0.448,1.474-1.963,1.474-1.963s-1.353-0.79-2.43-0.343
			c-1.077,0.449-1.475,1.964-1.475,1.964S42.713,21.298,43.791,20.851z"/>
	</g>
	<g>
		<path fill="#A8A8A8" d="M30.277,25.63c0.414-0.247,0.685-0.656,0.863-1.052c-0.033,0.499,0.089,0.99,0.202,1.322
			c-0.445-0.052-0.97-0.032-1.41,0.229c-0.956,0.571-1.123,2.056-1.123,2.056s1.386,0.561,2.342-0.009
			c0.956-0.571,1.123-2.056,1.123-2.056s-0.029-0.011-0.075-0.028c0.127-0.052,0.262-0.116,0.398-0.192
			c-0.378,0.657-0.461,1.395-0.461,1.395s1.457,0.59,2.463-0.01s1.181-2.161,1.181-2.161s-1.263-0.51-2.25-0.097
			c0.012-0.022,0.026-0.042,0.037-0.064c0.517-1.05-0.184-2.456-0.184-2.456s-0.729,0.141-1.352,0.569
			c0.233-0.545,0.291-1.049,0.291-1.049s-1.456-0.589-2.463,0.008c-0.604,0.36-0.907,1.066-1.054,1.574
			c-0.839,0.668-0.992,2.03-0.992,2.03S29.272,26.229,30.277,25.63z"/>
	</g>
	<g>
		<path fill="#A8A8A8" d="M34.286,54.635c-0.158,1.112,0.859,2.175,0.859,2.175s1.273-0.739,1.431-1.85
			c0.158-1.112-0.859-2.175-0.859-2.175S34.444,53.523,34.286,54.635z"/>
	</g>
	<g>
		<path fill="#A8A8A8" d="M36.744,50.945c0,0-0.769,1.254-0.379,2.307c0.39,1.053,1.79,1.506,1.79,1.506s0.769-1.255,0.38-2.308
			C38.144,51.397,36.744,50.945,36.744,50.945z"/>
	</g>
	<g>
		<path fill="#A8A8A8" d="M38.891,51.514c0.66,0.908,2.131,0.966,2.131,0.966s0.4-1.417-0.26-2.325s-2.131-0.965-2.131-0.965
			S38.231,50.606,38.891,51.514z"/>
	</g>
	<g>
		<path fill="#A8A8A8" d="M42.024,49.739c0,0,0.616-1.336,0.106-2.337c-0.51-1-1.954-1.285-1.954-1.285s-0.616,1.336-0.105,2.337
			C40.581,49.454,42.024,49.739,42.024,49.739z"/>
	</g>
</g>
<g>
	<path fill="#A8A8A8" d="M123.455,36.179c2.548,1.786,4.886,3.573,7.014,5.359l-3.704,4.097c-1.733-1.707-3.979-3.625-6.737-5.752
		L123.455,36.179z M125.188,47.29c1.603,0.788,3.323,1.472,5.162,2.05c-1.865,5.779-3.402,10.783-4.61,15.013
		c-1.865-0.71-3.651-1.327-5.358-1.853C121.932,58.481,123.534,53.411,125.188,47.29z M123.889,25.698
		c2.495,1.55,4.965,3.231,7.407,5.044l-3.507,4.019c-1.97-1.733-4.36-3.585-7.171-5.556L123.889,25.698z M158.524,49.97h-9.28
		c2.68,3.166,6.075,5.543,10.187,7.132c-0.973,1.524-1.997,3.218-3.074,5.083c-3.664-2.102-6.686-4.872-9.063-8.313v10.481h-5.28
		V53.556c-2.43,3.362-5.556,6.396-9.378,9.103c-0.919-1.603-1.918-3.166-2.994-4.689c3.822-2.128,7.178-4.794,10.067-7.999h-8.531
		V45.4h10.836v-5.201h5.28V45.4h11.23L158.524,49.97L158.524,49.97z M143.63,37.362c-3.152,2.548-6.108,4.755-8.866,6.619
		l-3.231-3.704c3.074-1.839,5.938-3.927,8.591-6.265L143.63,37.362z M131.65,36.179V27.55h26.046v8.629h-5.083V32.12h-15.879v4.059
		H131.65z M145.836,37.362l3.271-3.311c3.31,2.285,6.226,4.387,8.748,6.305l-3.35,3.704
		C151.642,41.696,148.752,39.463,145.836,37.362z"/>
	<path fill="#A8A8A8" d="M160.809,43.587h5.753v-2.482h-4.729V36.77h4.729v-2.482h-5.279v-4.413h5.279V25.58h4.965v4.295h4.61v4.413
		h-4.61v2.482h4.177v4.335h-4.177v2.482h4.965v4.373h-4.965v2.68l1.576-1.458c1.865,1.813,3.468,3.389,4.808,4.729l-3.429,3.389
		c-1.051-1.234-2.035-2.338-2.955-3.31v10.52h-4.965v-9.93c-1.287,2.706-2.758,5.109-4.413,7.211
		c-0.473-1.813-1.063-3.77-1.772-5.871c2.049-2.154,3.861-4.808,5.438-7.96h-5.005v-4.373H160.809z M190.44,25.659h5.24v7.014h3.113
		v5.122h-3.113v7.329h4.059v5.123h-4.059v14.106h-5.24V50.246h-5.438c-0.342,5.096-2.325,9.851-5.95,14.264
		c-1.024-0.972-2.64-2.272-4.847-3.901c3.283-3.204,5.096-6.659,5.438-10.362h-2.601v-5.123h3.073
		c0.079-1.444,0.118-3.034,0.118-4.768v-2.562h-2.876v-5.122h2.876v-6.975h5.241v6.975h4.965v-7.013H190.44z M185.357,45.124h5.083
		v-7.329h-4.965v2.364C185.476,41.946,185.437,43.6,185.357,45.124z"/>
	<path fill="#A8A8A8" d="M203.129,44.533l-2.325-5.319c3.283-1.76,6.278-3.52,8.984-5.28l2.246,4.926
		C208.461,41.04,205.493,42.93,203.129,44.533z M218.063,50.364h5.753c-0.236,1.589-0.604,3.027-1.104,4.314
		c4.348,1.143,9.785,2.726,16.313,4.748l-2.68,5.083c-3.521-1.327-8.925-3.186-16.215-5.575c-2.613,2.981-8.097,4.853-16.45,5.614
		c-0.657-1.497-1.55-3.297-2.68-5.397c5.03-0.25,9.053-0.942,12.067-2.079C216.083,55.937,217.747,53.7,218.063,50.364z
		 M201.592,29.52l3.231-4.02c2.758,1.787,4.847,3.231,6.265,4.335l-3.507,4.413C205.769,32.593,203.772,31.017,201.592,29.52z
		 M238.907,28.102v3.743l-2.641,4.807l-4.137-1.536l1.261-2.562h-5.792c-0.105,0.446-0.224,0.88-0.355,1.3
		c2.431,3.468,6.673,5.451,12.728,5.95c-0.945,1.918-1.707,3.533-2.285,4.847c-5.95-0.762-10.087-2.89-12.412-6.383
		c-2.154,3.257-5.74,5.332-10.757,6.226h20.962v11.111h-5.516v-6.383h-18.835v6.816h-5.517V44.494h7.171l-2.442-4.138
		c7.224-0.919,11.263-3.52,12.116-7.802h-4.374c-0.972,1.576-1.977,2.994-3.014,4.256c-1.13-0.788-2.588-1.682-4.374-2.68
		c2.416-2.601,4.242-5.517,5.477-8.748l5.438,0.355c-0.368,0.814-0.736,1.603-1.104,2.364L238.907,28.102L238.907,28.102z"/>
	<path fill="#A8A8A8" d="M242.808,31.333h15.052V25.5h5.517v5.832h15.288v5.122h-13.652c4.268,6.659,9.41,11.755,15.426,15.289
		c-1.13,1.182-2.535,2.863-4.216,5.044c-5.241-4.387-9.522-9.378-12.846-14.973v10.678h7.92v4.965h-7.92v6.855h-5.517v-6.855h-7.96
		v-4.769c-1.524,1.603-3.14,3.126-4.847,4.571c-1.445-1.892-2.785-3.521-4.02-4.887c6.213-4.216,11.322-9.521,15.328-15.918h-13.555
		v-5.121H242.808z M250.077,52.492h7.782V42.188C255.613,45.918,253.02,49.353,250.077,52.492z"/>
</g>
<g>
	<path fill="#A8A8A8" d="M119.99,70.404h8.801v3.133h-2.536v10.181h-3.729V73.537h-2.535L119.99,70.404L119.99,70.404z"/>
	<path fill="#A8A8A8" d="M131.863,70.404h3.729v13.313h-3.729V70.404z"/>
	<path fill="#A8A8A8" d="M139.467,70.404h3.729v10.293h4.065v3.021h-7.793V70.404H139.467z"/>
	<path fill="#A8A8A8" d="M150.706,70.404h3.729v10.293h4.065v3.021h-7.794V70.404z"/>
	<path fill="#A8A8A8" d="M174.677,74.245c0-0.578,0-1.641-0.765-1.641c-0.97,0-1.007,0.672-1.007,4.457
		c0,3.896,0.094,4.456,1.007,4.456c0.597,0,0.84-0.597,0.84-2.256v-1.026h3.617v0.84c0,3.113-1.23,4.903-4.513,4.903
		c-4.792,0-4.792-2.666-4.792-6.917c0-4.121,0-6.918,4.792-6.918c3.972,0,4.438,2.125,4.438,4.214v0.97h-3.617L174.677,74.245
		L174.677,74.245z"/>
	<path fill="#A8A8A8" d="M187.873,81.686h-2.498l-0.373,2.032h-3.842l3.151-13.313h4.681l3.132,13.313h-3.841L187.873,81.686z
		 M186.661,73.313h-0.037l-0.857,5.463h1.696L186.661,73.313z"/>
	<path fill="#A8A8A8" d="M195.326,70.404h4.94c2.854,0,4.308,1.212,4.308,4.14c0,2.965-1.846,4.158-4.382,4.158h-1.138v5.016h-3.729
		V70.404H195.326z M199.055,76.017h0.41c0.69,0,1.269-0.13,1.269-1.473c0-0.914-0.317-1.454-1.269-1.454h-0.41V76.017z"/>
	<path fill="#A8A8A8" d="M208.112,70.404h3.729v13.313h-3.729V70.404z"/>
	<path fill="#A8A8A8" d="M214.915,70.404h8.801v3.133h-2.536v10.181h-3.729V73.537h-2.535L214.915,70.404L214.915,70.404z"/>
	<path fill="#A8A8A8" d="M231.804,81.686h-2.498l-0.373,2.032h-3.842l3.151-13.313h4.681l3.132,13.313h-3.841L231.804,81.686z
		 M230.592,73.313h-0.037l-0.858,5.463h1.697L230.592,73.313z"/>
	<path fill="#A8A8A8" d="M239.257,70.404h3.729v10.293h4.065v3.021h-7.794V70.404z"/>
</g>
</svg>
