<?xml version="1.0" encoding="utf-8"?>
<!-- Generator: Adobe Illustrator 17.0.0, SVG Export Plug-In . SVG Version: 6.00 Build 0)  -->
<!DOCTYPE svg PUBLIC "-//W3C//DTD SVG 1.1//EN" "http://www.w3.org/Graphics/SVG/1.1/DTD/svg11.dtd">
<svg version="1.1" id="图层_1" xmlns="http://www.w3.org/2000/svg" xmlns:xlink="http://www.w3.org/1999/xlink" x="0px" y="0px"
	 width="40px" height="40px" viewBox="0 0 40 40" enable-background="new 0 0 40 40" xml:space="preserve">
<g>
	<g>
		<g>
			<path fill="#898989" d="M20,29c-4.962,0-9-4.038-9-9s4.038-9,9-9c4.963,0,9,4.038,9,9S24.963,29,20,29z M20,13
				c-3.86,0-7,3.14-7,7s3.14,7,7,7c3.859,0,7-3.14,7-7S23.859,13,20,13z"/>
		</g>
	</g>
	<g>
		<polygon fill-rule="evenodd" clip-rule="evenodd" fill="#898989" points="20,16.216 16.466,19.75 18.233,19.75 18.233,23.284 
			21.767,23.284 21.767,19.75 23.534,19.75 		"/>
	</g>
</g>
</svg>
