<?xml version="1.0" encoding="utf-8"?>
<!-- Generator: Adobe Illustrator 17.0.0, SVG Export Plug-In . SVG Version: 6.00 Build 0)  -->
<!DOCTYPE svg PUBLIC "-//W3C//DTD SVG 1.1//EN" "http://www.w3.org/Graphics/SVG/1.1/DTD/svg11.dtd">
<svg version="1.1" id="图层_1" xmlns="http://www.w3.org/2000/svg" xmlns:xlink="http://www.w3.org/1999/xlink" x="0px" y="0px"
	 width="40px" height="40px" viewBox="0 0 40 40" enable-background="new 0 0 40 40" xml:space="preserve">
<path fill="#527CBC" d="M28.333,8.999c-2.305-1.64-5.305-1.821-8.265-0.8c-3.108-1.314-7.287,0.231-9.865,3.853
	c-2.362,3.318-2.608,7.317-0.9,9.895c-0.417,3.732,0.706,7.151,3.373,9.049c4.5,3.203,11.652,0.874,15.975-5.2
	C32.975,19.721,32.833,12.201,28.333,8.999z M13.504,19.486c-1.432-1.019-1.424-3.487,0.017-5.511
	c1.441-2.025,3.77-2.84,5.202-1.821c1.432,1.019,1.424,3.486-0.017,5.511S14.936,20.505,13.504,19.486z M26.208,24.056
	c-2.722,3.825-6.753,5.627-9.002,4.026c-1.063-0.756-1.518-2.147-1.437-3.797c2.139-0.502,4.283-1.927,5.841-4.116
	c1.417-1.99,2.075-4.232,2.015-6.266c1.302-0.387,2.521-0.326,3.439,0.328C29.313,15.833,28.93,20.231,26.208,24.056z"/>
</svg>
